<svg width="365" height="43" viewBox="0 0 365 43" fill="none" xmlns="http://www.w3.org/2000/svg">
<path d="M23 8L0 8L7.00781 20.5L0 33L23 33L23 8Z" fill="#4D5D6A"/>
<path d="M140.42 34C140.18 34 139.964 33.916 139.772 33.748C139.604 33.556 139.52 33.34 139.52 33.1V9.7C139.52 9.436 139.604 9.22 139.772 9.052C139.964 8.884 140.18 8.8 140.42 8.8H151.4C154.424 8.8 156.668 9.424 158.132 10.672C159.62 11.896 160.364 13.648 160.364 15.928C160.364 17.128 160.052 18.148 159.428 18.988C158.828 19.804 158.144 20.404 157.376 20.788C158.36 21.244 159.188 21.976 159.86 22.984C160.532 23.992 160.868 25.12 160.868 26.368C160.868 28.768 160.076 30.64 158.492 31.984C156.908 33.328 154.652 34 151.724 34H140.42ZM150.68 18.808C151.64 18.808 152.372 18.568 152.876 18.088C153.38 17.584 153.632 16.924 153.632 16.108C153.632 15.316 153.38 14.68 152.876 14.2C152.372 13.72 151.64 13.48 150.68 13.48H146V18.808H150.68ZM151.004 29.32C151.988 29.32 152.756 29.032 153.308 28.456C153.86 27.88 154.136 27.184 154.136 26.368C154.136 25.504 153.86 24.796 153.308 24.244C152.756 23.668 151.988 23.38 151.004 23.38H146V29.32H151.004ZM175.164 34.36C171.78 34.36 169.116 33.532 167.172 31.876C165.228 30.22 164.196 27.784 164.076 24.568C164.052 23.872 164.04 22.84 164.04 21.472C164.04 20.08 164.052 19.036 164.076 18.34C164.196 15.172 165.24 12.736 167.208 11.032C169.2 9.304 171.852 8.44 175.164 8.44C178.476 8.44 181.128 9.304 183.12 11.032C185.112 12.736 186.156 15.172 186.252 18.34C186.3 19.732 186.324 20.776 186.324 21.472C186.324 22.144 186.3 23.176 186.252 24.568C186.132 27.784 185.1 30.22 183.156 31.876C181.212 33.532 178.548 34.36 175.164 34.36ZM175.164 29.176C176.484 29.176 177.528 28.78 178.296 27.988C179.088 27.196 179.508 25.984 179.556 24.352C179.604 22.96 179.628 21.976 179.628 21.4C179.628 20.776 179.604 19.792 179.556 18.448C179.508 16.816 179.088 15.604 178.296 14.812C177.504 14.02 176.46 13.624 175.164 13.624C173.868 13.624 172.824 14.02 172.032 14.812C171.264 15.604 170.844 16.816 170.772 18.448C170.748 19.12 170.736 20.104 170.736 21.4C170.736 22.672 170.748 23.656 170.772 24.352C170.844 25.984 171.264 27.196 172.032 27.988C172.8 28.78 173.844 29.176 175.164 29.176ZM200.793 34.36C197.409 34.36 194.745 33.532 192.801 31.876C190.857 30.22 189.825 27.784 189.705 24.568C189.681 23.872 189.669 22.84 189.669 21.472C189.669 20.08 189.681 19.036 189.705 18.34C189.825 15.172 190.869 12.736 192.837 11.032C194.829 9.304 197.481 8.44 200.793 8.44C204.105 8.44 206.757 9.304 208.749 11.032C210.741 12.736 211.785 15.172 211.881 18.34C211.929 19.732 211.953 20.776 211.953 21.472C211.953 22.144 211.929 23.176 211.881 24.568C211.761 27.784 210.729 30.22 208.785 31.876C206.841 33.532 204.177 34.36 200.793 34.36ZM200.793 29.176C202.113 29.176 203.157 28.78 203.925 27.988C204.717 27.196 205.137 25.984 205.185 24.352C205.233 22.96 205.257 21.976 205.257 21.4C205.257 20.776 205.233 19.792 205.185 18.448C205.137 16.816 204.717 15.604 203.925 14.812C203.133 14.02 202.089 13.624 200.793 13.624C199.497 13.624 198.453 14.02 197.661 14.812C196.893 15.604 196.473 16.816 196.401 18.448C196.377 19.12 196.365 20.104 196.365 21.4C196.365 22.672 196.377 23.656 196.401 24.352C196.473 25.984 196.893 27.196 197.661 27.988C198.429 28.78 199.473 29.176 200.793 29.176ZM217.025 34C216.785 34 216.569 33.916 216.377 33.748C216.209 33.556 216.125 33.34 216.125 33.1V9.7C216.125 9.436 216.209 9.22 216.377 9.052C216.569 8.884 216.785 8.8 217.025 8.8H221.561C221.825 8.8 222.041 8.884 222.209 9.052C222.377 9.22 222.461 9.436 222.461 9.7V17.692L229.121 9.484C229.409 9.028 229.877 8.8 230.525 8.8H235.709C235.925 8.8 236.105 8.884 236.249 9.052C236.393 9.196 236.465 9.364 236.465 9.556C236.465 9.724 236.429 9.868 236.357 9.988L227.717 20.86L237.005 32.812C237.101 32.908 237.149 33.052 237.149 33.244C237.149 33.436 237.077 33.616 236.933 33.784C236.789 33.928 236.609 34 236.393 34H231.029C230.453 34 229.973 33.76 229.589 33.28L222.461 24.388V33.1C222.461 33.364 222.377 33.58 222.209 33.748C222.041 33.916 221.825 34 221.561 34H217.025ZM240.897 34C240.657 34 240.441 33.916 240.249 33.748C240.081 33.556 239.997 33.34 239.997 33.1V9.7C239.997 9.436 240.081 9.22 240.249 9.052C240.441 8.884 240.657 8.8 240.897 8.8H244.785C245.361 8.8 245.781 9.064 246.045 9.592L252.381 20.932L258.717 9.592C258.981 9.064 259.401 8.8 259.977 8.8H263.829C264.093 8.8 264.309 8.884 264.477 9.052C264.669 9.22 264.765 9.436 264.765 9.7V33.1C264.765 33.364 264.669 33.58 264.477 33.748C264.309 33.916 264.093 34 263.829 34H259.545C259.281 34 259.053 33.916 258.861 33.748C258.693 33.58 258.609 33.364 258.609 33.1V19.6L254.577 27.124C254.265 27.676 253.845 27.952 253.317 27.952H251.445C251.133 27.952 250.881 27.88 250.689 27.736C250.497 27.592 250.329 27.388 250.185 27.124L246.117 19.6V33.1C246.117 33.34 246.033 33.556 245.865 33.748C245.697 33.916 245.481 34 245.217 34H240.897ZM268.369 34C268.177 34 267.997 33.928 267.829 33.784C267.685 33.616 267.613 33.436 267.613 33.244C267.613 33.1 267.625 32.992 267.649 32.92L276.109 9.808C276.181 9.52 276.337 9.28 276.577 9.088C276.817 8.896 277.129 8.8 277.513 8.8H282.841C283.225 8.8 283.537 8.896 283.777 9.088C284.017 9.28 284.173 9.52 284.245 9.808L292.669 32.92L292.741 33.244C292.741 33.436 292.657 33.616 292.489 33.784C292.345 33.928 292.165 34 291.949 34H287.521C286.945 34 286.561 33.748 286.369 33.244L284.965 29.572H275.353L273.985 33.244C273.793 33.748 273.397 34 272.797 34H268.369ZM283.525 24.388L280.177 14.884L276.829 24.388H283.525ZM296.479 34C296.239 34 296.023 33.916 295.831 33.748C295.663 33.556 295.579 33.34 295.579 33.1V9.7C295.579 9.436 295.663 9.22 295.831 9.052C296.023 8.884 296.239 8.8 296.479 8.8H306.271C309.415 8.8 311.863 9.52 313.615 10.96C315.391 12.376 316.279 14.392 316.279 17.008C316.279 18.688 315.883 20.116 315.091 21.292C314.299 22.468 313.207 23.368 311.815 23.992L316.747 32.848C316.819 32.992 316.855 33.124 316.855 33.244C316.855 33.436 316.771 33.616 316.603 33.784C316.459 33.928 316.291 34 316.099 34H311.311C310.615 34 310.123 33.676 309.835 33.028L305.731 25.108H302.059V33.1C302.059 33.364 301.963 33.58 301.771 33.748C301.603 33.916 301.387 34 301.123 34H296.479ZM306.199 19.996C307.303 19.996 308.143 19.732 308.719 19.204C309.295 18.652 309.583 17.896 309.583 16.936C309.583 15.976 309.295 15.22 308.719 14.668C308.167 14.092 307.327 13.804 306.199 13.804H302.059V19.996H306.199ZM321.369 34C321.129 34 320.913 33.916 320.721 33.748C320.553 33.556 320.469 33.34 320.469 33.1V9.7C320.469 9.436 320.553 9.22 320.721 9.052C320.913 8.884 321.129 8.8 321.369 8.8H325.905C326.169 8.8 326.385 8.884 326.553 9.052C326.721 9.22 326.805 9.436 326.805 9.7V17.692L333.465 9.484C333.753 9.028 334.221 8.8 334.869 8.8H340.053C340.269 8.8 340.449 8.884 340.593 9.052C340.737 9.196 340.809 9.364 340.809 9.556C340.809 9.724 340.773 9.868 340.701 9.988L332.061 20.86L341.349 32.812C341.445 32.908 341.493 33.052 341.493 33.244C341.493 33.436 341.421 33.616 341.277 33.784C341.133 33.928 340.953 34 340.737 34H335.373C334.797 34 334.317 33.76 333.933 33.28L326.805 24.388V33.1C326.805 33.364 326.721 33.58 326.553 33.748C326.385 33.916 326.169 34 325.905 34H321.369ZM353.033 34.36C350.753 34.36 348.797 34.024 347.165 33.352C345.533 32.68 344.297 31.804 343.457 30.724C342.641 29.62 342.209 28.42 342.161 27.124C342.161 26.932 342.233 26.764 342.377 26.62C342.545 26.452 342.737 26.368 342.953 26.368H347.489C347.777 26.368 348.005 26.428 348.173 26.548C348.365 26.644 348.557 26.8 348.749 27.016C349.061 27.64 349.565 28.156 350.261 28.564C350.957 28.972 351.881 29.176 353.033 29.176C354.401 29.176 355.445 28.96 356.165 28.528C356.885 28.096 357.245 27.508 357.245 26.764C357.245 26.236 357.053 25.804 356.669 25.468C356.309 25.132 355.733 24.832 354.941 24.568C354.149 24.304 352.973 24.004 351.413 23.668C348.533 23.068 346.373 22.192 344.933 21.04C343.517 19.864 342.809 18.196 342.809 16.036C342.809 14.572 343.217 13.264 344.033 12.112C344.849 10.96 346.013 10.06 347.525 9.412C349.037 8.764 350.801 8.44 352.817 8.44C354.905 8.44 356.717 8.8 358.253 9.52C359.789 10.24 360.953 11.152 361.745 12.256C362.561 13.336 362.993 14.404 363.041 15.46C363.041 15.676 362.969 15.856 362.825 16C362.681 16.144 362.501 16.216 362.285 16.216H357.533C357.245 16.216 357.005 16.168 356.813 16.072C356.645 15.976 356.489 15.82 356.345 15.604C356.201 15.052 355.805 14.584 355.157 14.2C354.533 13.816 353.753 13.624 352.817 13.624C351.737 13.624 350.909 13.816 350.333 14.2C349.757 14.584 349.469 15.148 349.469 15.892C349.469 16.396 349.625 16.816 349.937 17.152C350.273 17.488 350.801 17.8 351.521 18.088C352.265 18.352 353.321 18.628 354.689 18.916C356.921 19.324 358.697 19.84 360.017 20.464C361.361 21.064 362.345 21.856 362.969 22.84C363.593 23.8 363.905 25.012 363.905 26.476C363.905 28.084 363.437 29.488 362.501 30.688C361.589 31.864 360.305 32.776 358.649 33.424C357.017 34.048 355.145 34.36 353.033 34.36Z" fill="#4D5D6A"/>
<rect x="23" y="2" width="106" height="41" fill="#4D5D6A"/>
<path d="M50.816 34.36C47.432 34.36 44.768 33.532 42.824 31.876C40.88 30.22 39.848 27.784 39.728 24.568C39.704 23.872 39.692 22.84 39.692 21.472C39.692 20.08 39.704 19.036 39.728 18.34C39.848 15.172 40.892 12.736 42.86 11.032C44.852 9.304 47.504 8.44 50.816 8.44C54.128 8.44 56.78 9.304 58.772 11.032C60.764 12.736 61.808 15.172 61.904 18.34C61.952 19.732 61.976 20.776 61.976 21.472C61.976 22.144 61.952 23.176 61.904 24.568C61.784 27.784 60.752 30.22 58.808 31.876C56.864 33.532 54.2 34.36 50.816 34.36ZM50.816 29.176C52.136 29.176 53.18 28.78 53.948 27.988C54.74 27.196 55.16 25.984 55.208 24.352C55.256 22.96 55.28 21.976 55.28 21.4C55.28 20.776 55.256 19.792 55.208 18.448C55.16 16.816 54.74 15.604 53.948 14.812C53.156 14.02 52.112 13.624 50.816 13.624C49.52 13.624 48.476 14.02 47.684 14.812C46.916 15.604 46.496 16.816 46.424 18.448C46.4 19.12 46.388 20.104 46.388 21.4C46.388 22.672 46.4 23.656 46.424 24.352C46.496 25.984 46.916 27.196 47.684 27.988C48.452 28.78 49.496 29.176 50.816 29.176ZM76.7329 34.36C73.3489 34.36 70.6969 33.532 68.7769 31.876C66.8809 30.22 65.9329 27.724 65.9329 24.388V9.7C65.9329 9.436 66.0169 9.22 66.1849 9.052C66.3769 8.884 66.5929 8.8 66.8329 8.8H71.4769C71.7409 8.8 71.9569 8.884 72.1249 9.052C72.3169 9.22 72.4129 9.436 72.4129 9.7V24.352C72.4129 25.912 72.7729 27.088 73.4929 27.88C74.2369 28.648 75.3049 29.032 76.6969 29.032C78.0649 29.032 79.1209 28.636 79.8649 27.844C80.6089 27.052 80.9809 25.888 80.9809 24.352V9.7C80.9809 9.436 81.0649 9.22 81.2329 9.052C81.4249 8.884 81.6409 8.8 81.8809 8.8H86.5609C86.8249 8.8 87.0409 8.884 87.2089 9.052C87.3769 9.22 87.4609 9.436 87.4609 9.7V24.388C87.4609 27.724 86.5009 30.22 84.5809 31.876C82.6849 33.532 80.0689 34.36 76.7329 34.36ZM93.1348 34C92.8948 34 92.6788 33.916 92.4868 33.748C92.3188 33.556 92.2348 33.34 92.2348 33.1V9.7C92.2348 9.436 92.3188 9.22 92.4868 9.052C92.6788 8.884 92.8948 8.8 93.1348 8.8H102.927C106.071 8.8 108.519 9.52 110.271 10.96C112.047 12.376 112.935 14.392 112.935 17.008C112.935 18.688 112.539 20.116 111.747 21.292C110.955 22.468 109.863 23.368 108.471 23.992L113.403 32.848C113.475 32.992 113.511 33.124 113.511 33.244C113.511 33.436 113.427 33.616 113.259 33.784C113.115 33.928 112.947 34 112.755 34H107.967C107.271 34 106.779 33.676 106.491 33.028L102.387 25.108H98.7148V33.1C98.7148 33.364 98.6188 33.58 98.4268 33.748C98.2588 33.916 98.0428 34 97.7788 34H93.1348ZM102.855 19.996C103.959 19.996 104.799 19.732 105.375 19.204C105.951 18.652 106.239 17.896 106.239 16.936C106.239 15.976 105.951 15.22 105.375 14.668C104.823 14.092 103.983 13.804 102.855 13.804H98.7148V19.996H102.855Z" fill="white"/>
</svg>
